<svg width="143" height="55" viewBox="0 0 143 55" fill="none" xmlns="http://www.w3.org/2000/svg">
<path d="M120.605 25.1881L111.219 28.4841C111.019 28.554 110.838 28.6685 110.689 28.8189C110.54 28.9692 110.428 29.1515 110.36 29.352L107.118 38.7937C107.024 39.0706 107.009 39.3686 107.076 39.6534C107.143 39.9383 107.289 40.1985 107.498 40.4041C107.706 40.6097 107.968 40.7524 108.253 40.8159C108.539 40.8794 108.837 40.861 109.112 40.7629L118.499 37.4106C118.696 37.3399 118.875 37.2257 119.023 37.0766C119.171 36.9275 119.283 36.7472 119.352 36.549L122.591 27.1615C122.687 26.8852 122.702 26.5875 122.636 26.3027C122.57 26.0178 122.425 25.7574 122.218 25.5513C122.01 25.3452 121.749 25.2017 121.464 25.1375C121.179 25.0733 120.881 25.0908 120.605 25.1881ZM114.805 35.0491C114.405 35.0491 114.014 34.9306 113.682 34.7084C113.349 34.4863 113.09 34.1706 112.937 33.8012C112.784 33.4319 112.744 33.0254 112.822 32.6333C112.9 32.2412 113.093 31.881 113.375 31.5983C113.658 31.3156 114.018 31.1231 114.41 31.0451C114.802 30.9671 115.209 31.0071 115.578 31.1601C115.947 31.3131 116.263 31.5722 116.485 31.9046C116.707 32.2371 116.826 32.6279 116.826 33.0277C116.826 33.2931 116.774 33.556 116.672 33.8012C116.57 34.0465 116.422 34.2693 116.234 34.457C116.046 34.6448 115.823 34.7936 115.578 34.8952C115.333 34.9968 115.07 35.0491 114.805 35.0491Z" fill="#333333"/>
<path d="M92.4361 29.8484L92.507 29.7963C92.7511 29.5877 92.872 29.2038 92.872 28.6489C92.8883 28.0827 92.7745 27.5204 92.5395 27.005C92.3045 26.4897 91.9544 26.0351 91.5162 25.6762C90.6211 24.9009 89.4668 24.4912 88.2832 24.5289C87.1184 24.5102 85.987 24.9183 85.1023 25.6762C85.0188 25.743 84.9396 25.8118 84.8645 25.8848C84.4964 26.2316 84.2063 26.6528 84.0135 27.1204C83.8207 27.588 83.7297 28.0913 83.7465 28.5968V30.057H91.3598C91.7307 30.0839 92.1021 30.0119 92.4361 29.8484Z" fill="#333333"/>
<path d="M134.397 31.2524L131.393 29.644C131.242 29.563 131.076 29.5114 130.905 29.4917C130.319 26.2819 128.799 23.3163 126.536 20.966C124.273 18.6157 121.367 16.9851 118.182 16.2783C118.162 16.2226 118.138 16.1683 118.111 16.1156L116.319 12.7382C116.204 12.5228 116.032 12.3427 115.823 12.2171C115.613 12.0915 115.373 12.0252 115.129 12.0252C114.885 12.0252 114.645 12.0915 114.435 12.2171C114.226 12.3427 114.054 12.5228 113.939 12.7382L112.247 15.8903C112.216 15.9497 112.189 16.0111 112.166 16.0739C108.919 16.551 105.888 17.9846 103.46 20.1919C102.743 20.8182 102.094 21.5173 101.522 22.278C101.313 22.5387 101.14 22.8058 100.971 23.0644C100.915 22.9476 100.859 22.8329 100.802 22.7286C100.177 21.575 98.848 20.3212 98.848 20.3212C98.6707 20.1501 98.4913 19.9812 98.3036 19.8164C95.5753 17.3715 92.2651 16.1344 88.4584 16.1344C84.9667 16.1344 81.8609 17.1441 79.2244 19.1342L78.5778 19.6244L78.1606 18.9277C78.1272 18.8714 78.0918 18.815 78.0563 18.7587C77.6195 18.0514 77.0089 17.4676 76.2827 17.063C75.5565 16.6584 74.7388 16.4465 73.9076 16.4473H70.9874V14.5698H73.0732C73.9415 14.5858 74.8021 14.4045 75.5901 14.0395C76.3781 13.6745 77.073 13.1355 77.6224 12.4629C78.578 11.2721 79.0898 9.78607 79.07 8.25937C79.084 6.74883 78.5723 5.28045 77.6224 4.10593C77.0731 3.43337 76.3782 2.89443 75.5901 2.52979C74.802 2.16516 73.9414 1.98437 73.0732 2.00106H69.9758C66.4966 2.00106 63.3657 3.41334 60.9232 6.08564L60.9128 6.09817C60.4258 6.63275 59.9816 7.20469 59.5841 7.80876L58.9583 8.77672L58.3576 7.78791C57.9993 7.20552 57.5557 6.68023 57.0414 6.22959C55.7195 5.00245 53.9766 4.3303 52.1731 4.3521C50.341 4.33042 48.5681 5.0009 47.2088 6.22959C46.5179 6.83357 45.9655 7.57956 45.5893 8.41661C45.2132 9.25367 45.0221 10.1621 45.0291 11.0798C45.0288 11.9826 45.2167 12.8757 45.5809 13.7018C45.945 14.5279 46.4775 15.269 47.1441 15.8778L47.2046 15.9341C47.404 16.1155 47.6128 16.2861 47.8304 16.4452L48.6897 17.0711L47.8032 17.651C47.7094 17.7136 47.6176 17.7782 47.5258 17.8471L47.1087 18.1579L46.679 17.8596C46.4933 17.7303 46.2952 17.6072 46.0929 17.4904C44.7072 16.6662 43.1286 16.2222 41.5165 16.2032C40.4913 16.1832 39.4788 16.4321 38.5796 16.925C37.5623 17.5019 36.7803 18.4183 36.3707 19.5139L36.3541 19.5598L34.6019 24.5059L33.7551 21.6688C33.3866 20.4169 32.5559 19.352 31.4315 18.6899C30.4275 18.153 29.3066 17.8721 28.1682 17.8721C27.0297 17.8721 25.9088 18.153 24.9049 18.6899C23.7868 19.348 22.959 20.4048 22.5875 21.648L22.3789 22.3677L21.7302 24.4997L19.9739 19.5139C19.5658 18.4181 18.7844 17.5014 17.7671 16.925C16.8673 16.4318 15.854 16.183 14.8282 16.2032C13.2146 16.2158 11.6324 16.651 10.2393 17.4653C9.02327 18.1287 7 19.6432 7 22.4094C7.00549 23.2192 7.18772 24.018 7.53398 24.75L7.55066 24.7917L15.5207 45.2355C16.0129 46.531 17.423 48.6985 21.3402 48.6985C23.1277 48.6985 26.294 48.2458 27.4308 45.2126L27.4997 45.0207L28.188 43.0618L28.9618 45.2564L28.9827 45.3106C30.1362 48.2583 33.217 48.6985 34.9503 48.6985C36.6461 48.6985 39.6622 48.2583 40.8157 45.3106L45.4045 33.5241V42.5445C45.4045 44.8016 46.8876 46.2076 47.7699 46.846L47.9472 46.9649C49.2188 47.75 50.6894 48.1526 52.1835 48.1248C53.6952 48.1475 55.1781 47.7111 56.4365 46.8731C56.85 46.602 57.2332 46.2873 57.5796 45.9344L58.1282 45.3711L58.6496 45.9594C59.0307 46.3845 59.472 46.7513 59.9595 47.0483C61.2125 47.786 62.6464 48.1595 64.0999 48.1269C65.5291 48.1528 66.9399 47.8017 68.1903 47.1088C69.0246 46.6374 70.9832 45.2585 70.9832 42.5987V28.2567H73.6948L73.6385 29.039C73.6155 29.3624 73.603 29.6962 73.603 30.0299V34.4629C73.603 38.6351 75.23 42.2357 78.3087 44.8538L78.3525 44.8913C81.3373 47.3487 85.1419 48.5962 89.664 48.5962C92.8366 48.5962 95.5795 47.9829 97.8176 46.773L97.8384 46.7625C98.4196 46.4495 98.9773 46.0946 99.5071 45.7007C100.248 45.1981 100.878 44.5492 101.359 43.794C101.549 43.5103 101.708 43.2496 101.841 43.0117C101.925 43.1202 102.006 43.2204 102.079 43.3017C102.223 43.4644 102.354 43.6063 102.469 43.7315L102.617 43.89C103.013 44.3072 103.199 44.472 103.199 44.472C105.635 46.7792 108.715 48.2911 112.03 48.8069L113.876 52.2866C113.991 52.5021 114.163 52.6823 114.372 52.808C114.582 52.9336 114.821 53 115.065 53C115.31 53 115.549 52.9336 115.759 52.808C115.968 52.6823 116.139 52.5021 116.254 52.2866L118.011 49.0176C118.079 48.8911 118.126 48.7545 118.15 48.6129C121.336 47.9128 124.245 46.2886 126.513 43.9435C128.78 41.5985 130.306 38.6367 130.899 35.4288C130.997 35.4027 131.093 35.3656 131.183 35.3182L134.391 33.6222C134.605 33.5076 134.784 33.3371 134.909 33.1288C135.035 32.9205 135.101 32.6822 135.102 32.4392C135.102 32.1961 135.037 31.9574 134.913 31.7485C134.789 31.5395 134.611 31.3681 134.397 31.2524ZM45.6298 23.3815L37.5993 44.0339C37.3212 44.7599 36.5633 45.1562 35.3257 45.223C35.2027 45.223 35.0734 45.223 34.9399 45.223C33.9095 45.223 33.1551 45.0415 32.6767 44.6785C32.4522 44.511 32.2788 44.2842 32.1761 44.0235L28.1609 32.6542L24.1978 43.9713C24.0682 44.3125 23.8231 44.5974 23.5053 44.7766C23.0102 45.0728 22.2851 45.2216 21.3297 45.223C21.1962 45.223 21.069 45.223 20.9439 45.2105C19.7466 45.1396 19.0061 44.7265 18.7224 43.9713L10.6919 23.3711C10.5294 23.0655 10.4401 22.7262 10.4312 22.3802C10.4312 21.6153 10.9179 20.9721 11.8913 20.4505C12.7741 19.9197 13.7815 19.6318 14.8115 19.6161C15.821 19.6161 16.4642 19.9812 16.7409 20.7113L21.9555 35.5226L25.8664 22.6409C26.1112 21.8482 26.7272 21.4032 27.7145 21.3059C27.8628 21.2913 28.0118 21.2843 28.1609 21.285C28.3069 21.285 28.4445 21.285 28.578 21.3017C29.5834 21.3949 30.2092 21.8413 30.4553 22.6409L34.3141 35.5748L39.5809 20.7113C39.859 19.9812 40.5021 19.6161 41.5103 19.6161C42.5231 19.6365 43.5125 19.9244 44.3783 20.4505C44.522 20.5298 44.6613 20.6168 44.7955 20.7113C45.2581 21.0026 45.6058 21.4447 45.78 21.963C45.8237 22.1155 45.8455 22.2736 45.8446 22.4323C45.8577 22.7621 45.7836 23.0895 45.6298 23.3815ZM55.5563 42.5215C55.5563 43.043 55.2087 43.5298 54.5134 43.9818C53.8194 44.4435 53.0001 44.6802 52.1668 44.6598C51.3238 44.6852 50.4913 44.468 49.7681 44.0339C49.1424 43.5819 48.8295 43.0778 48.8295 42.5215V21.9734C48.8295 21.3726 49.1173 20.8858 49.693 20.5131L49.7681 20.4652C50.3939 20.0813 51.1934 19.8901 52.1668 19.8915C53.1402 19.8929 53.9398 20.0841 54.5655 20.4652C55.2275 20.8476 55.5577 21.3517 55.5563 21.9776V42.5215ZM54.722 13.3682C54.3822 13.6934 53.9816 13.9484 53.5432 14.1184C53.1047 14.2885 52.637 14.3703 52.1668 14.3591C51.1862 14.3817 50.2343 14.027 49.5074 13.3682C49.1817 13.0808 48.9205 12.7278 48.7407 12.3323C48.561 11.9369 48.4669 11.5079 48.4645 11.0735C48.4594 10.6379 48.5503 10.2066 48.7305 9.81004C48.9107 9.41348 49.176 9.06143 49.5074 8.7788C50.2337 8.11913 51.186 7.7643 52.1668 7.78791C52.637 7.77631 53.1049 7.8579 53.5434 8.02796C53.982 8.19803 54.3825 8.45321 54.722 8.7788C55.0657 9.05399 55.3427 9.40334 55.5323 9.80072C55.722 10.1981 55.8193 10.6332 55.8171 11.0735C55.8171 11.9413 55.452 12.7062 54.722 13.3682ZM75.1382 24.0595C75.0135 24.2816 74.8317 24.4664 74.6117 24.5947C74.3917 24.7231 74.1414 24.7904 73.8867 24.7896H67.5249V42.5737C67.5249 43.1995 67.1772 43.7036 66.482 44.0861C65.7474 44.4867 64.9195 44.6847 64.0832 44.6598C63.263 44.6894 62.4507 44.4908 61.7367 44.0861C61.1109 43.7022 60.798 43.1995 60.798 42.5737V15.6629C60.798 12.7758 61.6845 10.3594 63.4575 8.41374C65.2652 6.43194 67.438 5.44104 69.9758 5.44104H73.0524C73.4087 5.42351 73.7643 5.48988 74.0903 5.6348C74.4163 5.77973 74.7038 5.99918 74.9296 6.27548C75.3834 6.8348 75.6237 7.53719 75.6075 8.25728C75.6281 8.99394 75.388 9.71423 74.9296 10.2912C74.7031 10.5666 74.4155 10.7855 74.0896 10.9303C73.7637 11.0751 73.4086 11.142 73.0524 11.1257H71.3837C70.2365 11.1257 69.2979 11.4734 68.5678 12.1687C67.8725 12.8641 67.5249 13.7854 67.5249 14.9328V19.8873H73.8867C74.1415 19.8861 74.3919 19.9533 74.612 20.0816C74.8321 20.21 75.0138 20.3951 75.1382 20.6174C75.3552 20.9639 75.4973 21.3518 75.5554 21.7564C75.5851 21.949 75.5998 22.1436 75.5992 22.3385C75.6155 22.9447 75.4554 23.5426 75.1382 24.0595ZM85.1356 38.1928C85.2274 38.2805 85.3234 38.3681 85.4235 38.4536C86.5359 39.3576 88.0134 39.8096 89.8559 39.8096C91.2203 39.7985 92.5618 39.4586 93.7669 38.8187C94.2869 38.5517 94.7319 38.3389 95.1018 38.1803C95.4681 37.9968 95.8632 37.8775 96.2699 37.8278C96.4221 37.8266 96.5739 37.8426 96.7225 37.8758C96.8398 37.9005 96.9544 37.9368 97.0646 37.9842C97.4854 38.1757 97.8428 38.4833 98.095 38.8708C98.541 39.4179 98.7972 40.0951 98.825 40.8005C98.825 41.774 97.9386 42.7475 96.1656 43.721C94.4274 44.6598 92.2546 45.1291 89.6473 45.1291C85.929 45.1291 82.8871 44.1556 80.5218 42.2086C78.194 40.2268 77.0294 37.6366 77.028 34.4379V30.0049C77.0256 29.2754 77.1033 28.5479 77.2595 27.8353C77.411 27.1517 77.6398 26.4875 77.9416 25.8556C78.4031 24.9087 79.0074 24.0384 79.7333 23.2751C79.9336 23.0637 80.1421 22.8551 80.3591 22.6493C82.584 20.5966 85.2782 19.5709 88.4417 19.5723C91.398 19.5723 93.9184 20.511 96.0029 22.3885C98.1235 24.2313 99.1838 26.5607 99.1838 29.377C99.2104 30.2647 99.0689 31.1495 98.7666 31.9846C98.5677 32.5935 98.1367 33.0994 97.5673 33.3927C97.3613 33.5034 97.1488 33.6016 96.9311 33.6869C96.7149 33.7752 96.4916 33.845 96.2636 33.8955L96.1072 33.9247C95.5195 34.0025 94.927 34.0373 94.3342 34.029H83.7465V34.8113C83.7315 35.4404 83.8472 36.0658 84.0863 36.6478C84.3255 37.2299 84.6828 37.756 85.1356 38.1928ZM114.596 45.4942C112.015 45.4901 109.493 44.7208 107.349 43.2836C105.204 41.8464 103.534 39.8057 102.549 37.4195C101.565 35.0333 101.309 32.4087 101.815 29.8772C102.321 27.3458 103.566 25.0213 105.393 23.1973C107.219 21.3733 109.546 20.1319 112.078 19.6297C114.61 19.1276 117.233 19.3874 119.618 20.3763C122.002 21.3651 124.04 23.0387 125.473 25.1854C126.907 27.3322 127.672 29.8558 127.672 32.4373C127.672 34.1547 127.333 35.8553 126.675 37.4417C126.017 39.028 125.053 40.4691 123.838 41.6826C122.623 42.896 121.18 43.858 119.593 44.5134C118.006 45.1689 116.305 45.505 114.588 45.5026L114.596 45.4942Z" fill="#333333"/>
</svg>
